<svg width="100" height="15" viewBox="0 0 100 15" fill="none" xmlns="http://www.w3.org/2000/svg">
<path d="M33.6503 12.0186C33.5576 12.0186 33.4817 11.989 33.4227 11.93C33.3637 11.871 33.3341 11.7993 33.3341 11.715V3.48207C33.3341 3.38933 33.3637 3.31345 33.4227 3.25443C33.4817 3.19541 33.5576 3.1659 33.6503 3.1659H34.6494C34.7674 3.1659 34.856 3.19963 34.915 3.26708C34.974 3.32609 35.0119 3.37246 35.0288 3.40619L37.4696 7.95898L39.9357 3.40619C39.9526 3.37246 39.9905 3.32609 40.0495 3.26708C40.1085 3.19963 40.1971 3.1659 40.3151 3.1659H41.3015C41.3943 3.1659 41.4702 3.19541 41.5292 3.25443C41.5882 3.31345 41.6177 3.38933 41.6177 3.48207V11.715C41.6177 11.7993 41.5882 11.871 41.5292 11.93C41.4702 11.989 41.3943 12.0186 41.3015 12.0186H40.2392C40.1465 12.0186 40.0706 11.989 40.0116 11.93C39.961 11.871 39.9357 11.7993 39.9357 11.715V6.23904L38.1652 9.61569C38.123 9.69157 38.0682 9.75902 38.0008 9.81804C37.9333 9.86862 37.8448 9.89392 37.7352 9.89392H37.2167C37.0986 9.89392 37.0059 9.86862 36.9384 9.81804C36.8794 9.75902 36.8288 9.69157 36.7867 9.61569L35.0161 6.23904V11.715C35.0161 11.7993 34.9866 11.871 34.9276 11.93C34.8686 11.989 34.7969 12.0186 34.7126 12.0186H33.6503ZM46.2659 12.145C45.3301 12.145 44.5881 11.8752 44.0401 11.3356C43.4921 10.796 43.197 10.0288 43.1549 9.03395C43.1464 8.94964 43.1422 8.84425 43.1422 8.71778C43.1422 8.58288 43.1464 8.47749 43.1549 8.40161C43.1886 7.76928 43.3319 7.22126 43.5848 6.75755C43.8462 6.29384 44.2045 5.93973 44.6598 5.69523C45.1151 5.4423 45.6505 5.31583 46.2659 5.31583C46.9488 5.31583 47.5222 5.45916 47.9859 5.74582C48.4496 6.02404 48.7995 6.41609 49.0355 6.92196C49.2716 7.41939 49.3897 7.99692 49.3897 8.65455V8.92013C49.3897 9.00444 49.3601 9.0761 49.3011 9.13512C49.2421 9.19414 49.1662 9.22365 49.0735 9.22365H44.8748C44.8748 9.22365 44.8748 9.23629 44.8748 9.26159C44.8748 9.28688 44.8748 9.30796 44.8748 9.32482C44.8832 9.61991 44.938 9.89392 45.0392 10.1469C45.1488 10.3914 45.3048 10.5895 45.5071 10.7412C45.7179 10.893 45.9666 10.9689 46.2533 10.9689C46.4894 10.9689 46.6875 10.9352 46.8477 10.8677C47.0079 10.7918 47.1385 10.7075 47.2397 10.6148C47.3409 10.522 47.4126 10.4462 47.4547 10.3871C47.5306 10.286 47.5896 10.2269 47.6318 10.2101C47.6824 10.1848 47.754 10.1721 47.8468 10.1721H48.9344C49.0187 10.1721 49.0861 10.1974 49.1367 10.248C49.1957 10.2986 49.221 10.3618 49.2126 10.4377C49.2042 10.5726 49.1325 10.737 48.9976 10.9309C48.8711 11.1249 48.6857 11.3146 48.4412 11.5C48.1967 11.6855 47.8889 11.8415 47.5179 11.968C47.1554 12.086 46.7381 12.145 46.2659 12.145ZM44.8748 8.16133H47.6697V8.12339C47.6697 7.79458 47.6149 7.50792 47.5053 7.26342C47.3957 7.01891 47.2355 6.825 47.0247 6.68167C46.814 6.53834 46.561 6.46668 46.2659 6.46668C45.9708 6.46668 45.7179 6.53834 45.5071 6.68167C45.2964 6.825 45.1362 7.01891 45.0266 7.26342C44.9254 7.50792 44.8748 7.79458 44.8748 8.12339V8.16133ZM53.6793 12.0186C53.1735 12.0186 52.7477 11.93 52.402 11.753C52.0563 11.5759 51.7992 11.3146 51.6306 10.9689C51.462 10.6148 51.3776 10.1764 51.3776 9.65363V6.78284H50.3786C50.2942 6.78284 50.2226 6.75333 50.1636 6.69432C50.1045 6.6353 50.075 6.56363 50.075 6.47932V5.74582C50.075 5.66151 50.1045 5.58984 50.1636 5.53083C50.2226 5.47181 50.2942 5.4423 50.3786 5.4423H51.3776V3.34296C51.3776 3.25864 51.4029 3.18698 51.4535 3.12796C51.5125 3.06895 51.5884 3.03944 51.6812 3.03944H52.7055C52.7899 3.03944 52.8615 3.06895 52.9205 3.12796C52.9796 3.18698 53.0091 3.25864 53.0091 3.34296V5.4423H54.5899C54.6742 5.4423 54.7459 5.47181 54.8049 5.53083C54.8639 5.58984 54.8934 5.66151 54.8934 5.74582V6.47932C54.8934 6.56363 54.8639 6.6353 54.8049 6.69432C54.7459 6.75333 54.6742 6.78284 54.5899 6.78284H53.0091V9.52717C53.0091 9.87284 53.0681 10.1426 53.1861 10.3366C53.3126 10.5305 53.5276 10.6274 53.8311 10.6274H54.7037C54.788 10.6274 54.8597 10.6569 54.9187 10.716C54.9777 10.775 55.0072 10.8466 55.0072 10.9309V11.715C55.0072 11.7993 54.9777 11.871 54.9187 11.93C54.8597 11.989 54.788 12.0186 54.7037 12.0186H53.6793ZM58.0388 12.145C57.6004 12.145 57.2041 12.0607 56.85 11.8921C56.4959 11.715 56.2134 11.4832 56.0027 11.1965C55.8003 10.9014 55.6991 10.5726 55.6991 10.2101C55.6991 9.61991 55.9352 9.15198 56.4074 8.80631C56.8879 8.4522 57.5203 8.21613 58.3044 8.09809L60.0369 7.84516V7.57958C60.0369 7.22548 59.9484 6.95147 59.7714 6.75755C59.5943 6.56364 59.2908 6.46668 58.8608 6.46668C58.5573 6.46668 58.3086 6.52991 58.1147 6.65638C57.9292 6.77441 57.7901 6.9346 57.6973 7.13695C57.6299 7.24655 57.5329 7.30136 57.4064 7.30136H56.4074C56.3146 7.30136 56.2429 7.27606 56.1924 7.22548C56.1502 7.17489 56.1291 7.10744 56.1291 7.02313C56.1376 6.88823 56.1924 6.72383 56.2935 6.52991C56.3947 6.336 56.5549 6.15051 56.7741 5.97346C56.9933 5.78797 57.2758 5.632 57.6214 5.50553C57.9671 5.37907 58.3844 5.31583 58.8734 5.31583C59.4046 5.31583 59.8515 5.38328 60.214 5.51818C60.585 5.64465 60.8801 5.81748 61.0993 6.03669C61.3185 6.2559 61.4787 6.51305 61.5798 6.80814C61.681 7.10323 61.7316 7.41518 61.7316 7.74399V11.715C61.7316 11.7993 61.7021 11.871 61.6431 11.93C61.584 11.989 61.5124 12.0186 61.4281 12.0186H60.4037C60.311 12.0186 60.2351 11.989 60.1761 11.93C60.1255 11.871 60.1002 11.7993 60.1002 11.715V11.2218C59.9906 11.382 59.843 11.5338 59.6575 11.6771C59.4721 11.812 59.2444 11.9258 58.9746 12.0186C58.7133 12.1029 58.4013 12.145 58.0388 12.145ZM58.4688 10.9436C58.7638 10.9436 59.0294 10.8804 59.2655 10.7539C59.51 10.6274 59.6997 10.4335 59.8346 10.1721C59.9779 9.90235 60.0496 9.56511 60.0496 9.16041V8.89483L58.7849 9.09718C58.2875 9.17306 57.9165 9.29531 57.672 9.46393C57.4275 9.63255 57.3053 9.83912 57.3053 10.0836C57.3053 10.2691 57.3601 10.4293 57.4697 10.5642C57.5877 10.6907 57.7353 10.7876 57.9123 10.8551C58.0894 10.9141 58.2748 10.9436 58.4688 10.9436ZM65.5204 12.0186C65.3855 12.0186 65.2844 11.989 65.2169 11.93C65.1579 11.8626 65.1073 11.7867 65.0652 11.7024L62.7002 5.83435C62.6834 5.79219 62.675 5.75425 62.675 5.72053C62.675 5.64465 62.7002 5.58141 62.7508 5.53083C62.8098 5.47181 62.8773 5.4423 62.9532 5.4423H63.9776C64.0787 5.4423 64.1546 5.47181 64.2052 5.53083C64.2558 5.58141 64.2895 5.632 64.3064 5.68259L65.9884 10.1216L67.6704 5.68259C67.6872 5.632 67.721 5.58141 67.7715 5.53083C67.8221 5.47181 67.898 5.4423 67.9992 5.4423H69.0362C69.1037 5.4423 69.1627 5.47181 69.2133 5.53083C69.2723 5.58141 69.3018 5.64465 69.3018 5.72053C69.3018 5.75425 69.2976 5.79219 69.2891 5.83435L66.9116 11.7024C66.8779 11.7867 66.8273 11.8626 66.7598 11.93C66.6924 11.989 66.5912 12.0186 66.4563 12.0186H65.5204ZM70.7589 12.0186C70.6746 12.0186 70.603 11.989 70.5439 11.93C70.4849 11.871 70.4554 11.7993 70.4554 11.715V5.74582C70.4554 5.66151 70.4849 5.58984 70.5439 5.53083C70.603 5.47181 70.6746 5.4423 70.7589 5.4423H71.8086C71.9013 5.4423 71.973 5.47181 72.0236 5.53083C72.0826 5.58984 72.1121 5.66151 72.1121 5.74582V11.715C72.1121 11.7993 72.0826 11.871 72.0236 11.93C71.973 11.989 71.9013 12.0186 71.8086 12.0186H70.7589ZM70.7083 4.35469C70.6156 4.35469 70.5397 4.32939 70.4807 4.27881C70.4301 4.21979 70.4048 4.14391 70.4048 4.05117V3.14061C70.4048 3.0563 70.4301 2.98463 70.4807 2.92562C70.5397 2.8666 70.6156 2.83709 70.7083 2.83709H71.8592C71.9519 2.83709 72.0278 2.8666 72.0868 2.92562C72.1458 2.98463 72.1753 3.0563 72.1753 3.14061V4.05117C72.1753 4.14391 72.1458 4.21979 72.0868 4.27881C72.0278 4.32939 71.9519 4.35469 71.8592 4.35469H70.7083ZM76.4296 12.145C75.9237 12.145 75.4895 12.086 75.127 11.968C74.7728 11.8499 74.482 11.7024 74.2543 11.5253C74.0267 11.3483 73.8581 11.1712 73.7485 10.9942C73.6389 10.8171 73.5798 10.6696 73.5714 10.5515C73.563 10.4588 73.5883 10.3871 73.6473 10.3366C73.7147 10.2775 73.7864 10.248 73.8623 10.248H74.8614C74.8951 10.248 74.9246 10.2522 74.9499 10.2607C74.9752 10.2691 75.0089 10.2944 75.0511 10.3366C75.1607 10.4293 75.2745 10.5263 75.3925 10.6274C75.519 10.7286 75.6665 10.8171 75.8352 10.893C76.0038 10.9605 76.2146 10.9942 76.4675 10.9942C76.7963 10.9942 77.0703 10.9309 77.2895 10.8045C77.5172 10.6696 77.631 10.4799 77.631 10.2354C77.631 10.0583 77.5804 9.915 77.4792 9.80539C77.3865 9.69579 77.2094 9.59883 76.9481 9.51452C76.6867 9.42178 76.3157 9.32482 75.8352 9.22365C75.363 9.11404 74.971 8.97493 74.659 8.80631C74.3471 8.63768 74.1152 8.42691 73.9635 8.17397C73.8117 7.92104 73.7358 7.62595 73.7358 7.28871C73.7358 6.9599 73.8328 6.64795 74.0267 6.35286C74.229 6.04934 74.5241 5.80062 74.912 5.60671C75.3082 5.41279 75.7972 5.31583 76.379 5.31583C76.8343 5.31583 77.2305 5.37485 77.5678 5.49289C77.905 5.60249 78.1832 5.7416 78.4024 5.91023C78.6301 6.07885 78.8029 6.25168 78.9209 6.42874C79.039 6.59736 79.1022 6.7449 79.1106 6.87137C79.1191 6.96411 79.0938 7.03999 79.0348 7.09901C78.9758 7.1496 78.9083 7.17489 78.8324 7.17489H77.8966C77.8544 7.17489 77.8165 7.16646 77.7828 7.1496C77.749 7.13273 77.7153 7.11166 77.6816 7.08636C77.5888 7.00205 77.4877 6.91353 77.3781 6.82078C77.2685 6.72804 77.1336 6.64795 76.9734 6.5805C76.8216 6.50462 76.6193 6.46668 76.3663 6.46668C76.0459 6.46668 75.8014 6.53834 75.6328 6.68167C75.4642 6.81657 75.3799 6.98941 75.3799 7.20018C75.3799 7.34351 75.4178 7.46998 75.4937 7.57958C75.578 7.68076 75.7424 7.77771 75.9869 7.87046C76.2314 7.9632 76.6024 8.06015 77.0998 8.16133C77.6647 8.2625 78.1116 8.41426 78.4404 8.61661C78.7776 8.81052 79.0137 9.03816 79.1486 9.29953C79.2919 9.55246 79.3636 9.8349 79.3636 10.1469C79.3636 10.5263 79.2498 10.8677 79.0221 11.1712C78.8029 11.4747 78.4741 11.715 78.0357 11.8921C77.6057 12.0607 77.0703 12.145 76.4296 12.145ZM80.9726 12.0186C80.8883 12.0186 80.8166 11.989 80.7576 11.93C80.6986 11.871 80.6691 11.7993 80.6691 11.715V5.74582C80.6691 5.66151 80.6986 5.58984 80.7576 5.53083C80.8166 5.47181 80.8883 5.4423 80.9726 5.4423H82.0222C82.115 5.4423 82.1866 5.47181 82.2372 5.53083C82.2963 5.58984 82.3258 5.66151 82.3258 5.74582V11.715C82.3258 11.7993 82.2963 11.871 82.2372 11.93C82.1866 11.989 82.115 12.0186 82.0222 12.0186H80.9726ZM80.922 4.35469C80.8292 4.35469 80.7534 4.32939 80.6943 4.27881C80.6438 4.21979 80.6185 4.14391 80.6185 4.05117V3.14061C80.6185 3.0563 80.6438 2.98463 80.6943 2.92562C80.7534 2.8666 80.8292 2.83709 80.922 2.83709H82.0728C82.1656 2.83709 82.2415 2.8666 82.3005 2.92562C82.3595 2.98463 82.389 3.0563 82.389 3.14061V4.05117C82.389 4.14391 82.3595 4.21979 82.3005 4.27881C82.2415 4.32939 82.1656 4.35469 82.0728 4.35469H80.922ZM86.9494 12.145C86.2749 12.145 85.7058 12.027 85.2421 11.7909C84.7868 11.5548 84.4369 11.2218 84.1924 10.7918C83.9564 10.3618 83.8215 9.86019 83.7877 9.28688C83.7793 9.13512 83.7751 8.94964 83.7751 8.73043C83.7751 8.51122 83.7793 8.32573 83.7877 8.17397C83.8215 7.59223 83.9606 7.09058 84.2051 6.66902C84.458 6.23904 84.8121 5.90601 85.2674 5.66994C85.7311 5.43387 86.2918 5.31583 86.9494 5.31583C87.607 5.31583 88.1635 5.43387 88.6188 5.66994C89.0825 5.90601 89.4366 6.23904 89.6811 6.66902C89.934 7.09058 90.0773 7.59223 90.1111 8.17397C90.1195 8.32573 90.1237 8.51122 90.1237 8.73043C90.1237 8.94964 90.1195 9.13512 90.1111 9.28688C90.0773 9.86019 89.9382 10.3618 89.6937 10.7918C89.4576 11.2218 89.1078 11.5548 88.644 11.7909C88.1888 12.027 87.6239 12.145 86.9494 12.145ZM86.9494 10.893C87.3962 10.893 87.7419 10.7539 87.9864 10.4757C88.2309 10.189 88.3658 9.77167 88.3911 9.22365C88.3995 9.09718 88.4038 8.93277 88.4038 8.73043C88.4038 8.52808 88.3995 8.36367 88.3911 8.23721C88.3658 7.69762 88.2309 7.28449 87.9864 6.99784C87.7419 6.71118 87.3962 6.56785 86.9494 6.56785C86.5025 6.56785 86.1569 6.71118 85.9124 6.99784C85.6679 7.28449 85.533 7.69762 85.5077 8.23721C85.4992 8.36367 85.495 8.52808 85.495 8.73043C85.495 8.93277 85.4992 9.09718 85.5077 9.22365C85.533 9.77167 85.6679 10.189 85.9124 10.4757C86.1569 10.7539 86.5025 10.893 86.9494 10.893ZM91.8284 12.0186C91.7441 12.0186 91.6725 11.989 91.6134 11.93C91.5544 11.871 91.5249 11.7993 91.5249 11.715V5.74582C91.5249 5.66151 91.5544 5.58984 91.6134 5.53083C91.6725 5.47181 91.7441 5.4423 91.8284 5.4423H92.8655C92.9498 5.4423 93.0214 5.47181 93.0805 5.53083C93.1395 5.58984 93.169 5.66151 93.169 5.74582V6.26433C93.3882 5.99454 93.6664 5.77111 94.0037 5.59406C94.3493 5.40857 94.7751 5.31583 95.281 5.31583C95.7953 5.31583 96.2421 5.43387 96.6215 5.66994C97.0009 5.89758 97.2918 6.22218 97.4941 6.64373C97.7049 7.06529 97.8103 7.57115 97.8103 8.16133V11.715C97.8103 11.7993 97.7808 11.871 97.7218 11.93C97.6628 11.989 97.5911 12.0186 97.5068 12.0186H96.3939C96.3096 12.0186 96.2379 11.989 96.1789 11.93C96.1199 11.871 96.0904 11.7993 96.0904 11.715V8.23721C96.0904 7.7482 95.9681 7.36459 95.7236 7.08636C95.4875 6.80814 95.1419 6.66902 94.6866 6.66902C94.2482 6.66902 93.8983 6.80814 93.6369 7.08636C93.3755 7.36459 93.2449 7.7482 93.2449 8.23721V11.715C93.2449 11.7993 93.2153 11.871 93.1563 11.93C93.0973 11.989 93.0256 12.0186 92.9413 12.0186H91.8284Z" fill="#0D0A1F"/>
<g clip-path="url(#clip0_40_11310)">
<path d="M25.2922 10.5886L20.5477 1.73684C19.9791 0.675979 18.9164 0.0345235 17.7049 0.0209408C16.4967 0.00334245 15.4162 0.624601 14.8234 1.67247L12.9105 5.05396L11.1313 1.73507C10.5627 0.674443 9.49947 0.033106 8.28882 0.0192871H8.24903C7.05423 0.0192871 5.99401 0.634285 5.40763 1.66999L0.392194 10.5282C-0.139997 11.4682 -0.129872 12.5848 0.419352 13.515C0.968575 14.4452 1.94541 15.0007 3.03254 15.0007H6.49595C7.31317 15.0001 8.11553 14.7841 8.82087 14.3748C9.5262 13.9655 10.1091 13.3777 10.51 12.6716L12.87 8.50749L15.0514 12.5774C15.4428 13.3099 16.0282 13.9226 16.7448 14.3496C17.4613 14.7766 18.2817 15.0017 19.1176 15.0007H22.6184C23.691 15.0007 24.6613 14.4563 25.2139 13.5448C25.7664 12.6332 25.7963 11.5277 25.2922 10.5886ZM9.05458 11.86C8.79898 12.31 8.42737 12.6846 7.97778 12.9454C7.5282 13.2061 7.0168 13.3437 6.49595 13.3441H3.03254C2.79547 13.3442 2.56251 13.2827 2.35682 13.1659C2.15113 13.049 1.97989 12.8807 1.86012 12.6779C1.74035 12.475 1.67624 12.2446 1.67415 12.0095C1.67206 11.7744 1.73207 11.5429 1.84821 11.338L6.86365 2.47975C7.14951 1.97412 7.66705 1.67412 8.25022 1.67412H8.26964C8.86079 1.68086 9.37928 1.99385 9.65681 2.51152L11.9393 6.7695L9.05458 11.86ZM23.7826 12.6914C23.531 13.1063 23.1068 13.3444 22.6184 13.3444H19.1178C18.585 13.3451 18.0621 13.2016 17.6054 12.9294C17.1488 12.6573 16.7756 12.2668 16.5261 11.7999L13.8419 6.79206L16.2793 2.48247C16.5685 1.97117 17.097 1.67283 17.6855 1.67649C18.2767 1.68322 18.7952 1.99621 19.0727 2.51389L23.8173 11.3655C24.0469 11.7932 24.0341 12.2764 23.7826 12.6914V12.6914Z" fill="url(#paint0_linear_40_11310)"/>
</g>
<defs>
<linearGradient id="paint0_linear_40_11310" x1="7.87867e-05" y1="7.50946" x2="25.65" y2="7.50946" gradientUnits="userSpaceOnUse">
<stop stop-color="#FFA674"/>
<stop offset="0.5" stop-color="#FF70A4"/>
<stop offset="1" stop-color="#9E2CF2"/>
</linearGradient>
<clipPath id="clip0_40_11310">
<rect width="25.65" height="14.9814" fill="white" transform="translate(0 0.0185547)"/>
</clipPath>
</defs>
</svg>
