<svg width="147" height="22" viewBox="0 0 147 22" fill="none" xmlns="http://www.w3.org/2000/svg">
<path d="M49.406 17C49.2698 17 49.1584 16.9567 49.0717 16.87C48.985 16.7833 48.9417 16.6781 48.9417 16.5543V4.46428C48.9417 4.32809 48.985 4.21666 49.0717 4.13C49.1584 4.04333 49.2698 4 49.406 4H50.8731C51.0465 4 51.1765 4.04952 51.2631 4.14857C51.3498 4.23524 51.4055 4.30333 51.4303 4.35286L55.0146 11.0386L58.636 4.35286C58.6608 4.30333 58.7165 4.23524 58.8031 4.14857C58.8898 4.04952 59.0198 4 59.1931 4H60.6417C60.7779 4 60.8893 4.04333 60.976 4.13C61.0627 4.21666 61.106 4.32809 61.106 4.46428V16.5543C61.106 16.6781 61.0627 16.7833 60.976 16.87C60.8893 16.9567 60.7779 17 60.6417 17H59.0817C58.9455 17 58.8341 16.9567 58.7474 16.87C58.6731 16.7833 58.636 16.6781 58.636 16.5543V8.51286L56.036 13.4714C55.9741 13.5829 55.8936 13.6819 55.7946 13.7686C55.6955 13.8429 55.5655 13.88 55.4046 13.88H54.6431C54.4698 13.88 54.3336 13.8429 54.2346 13.7686C54.1479 13.6819 54.0736 13.5829 54.0117 13.4714L51.4117 8.51286V16.5543C51.4117 16.6781 51.3684 16.7833 51.2817 16.87C51.195 16.9567 51.0898 17 50.966 17H49.406ZM67.9319 17.1857C66.5576 17.1857 65.4681 16.7895 64.6633 15.9971C63.8585 15.2048 63.4252 14.0781 63.3633 12.6171C63.3509 12.4933 63.3447 12.3386 63.3447 12.1529C63.3447 11.9548 63.3509 11.8 63.3633 11.6886C63.4128 10.7476 63.6233 9.94286 63.9947 9.27428C64.3785 8.59333 64.9047 8.07333 65.5733 7.71428C66.2419 7.34286 67.0281 7.15714 67.9319 7.15714C68.9347 7.15714 69.7766 7.36762 70.4576 7.78857C71.1385 8.19714 71.6523 8.77286 71.999 9.51571C72.3457 10.2462 72.519 11.0943 72.519 12.06V12.45C72.519 12.5738 72.4757 12.679 72.389 12.7657C72.3023 12.8524 72.1909 12.8957 72.0547 12.8957H65.889C65.889 12.8957 65.889 12.9143 65.889 12.9514C65.889 12.9886 65.889 13.0195 65.889 13.0443C65.9014 13.4776 65.9819 13.88 66.1304 14.2514C66.2914 14.6105 66.5204 14.9014 66.8176 15.1243C67.1271 15.3471 67.4923 15.4586 67.9133 15.4586C68.26 15.4586 68.5509 15.409 68.7862 15.31C69.0214 15.1986 69.2133 15.0748 69.3619 14.9386C69.5104 14.8024 69.6157 14.691 69.6776 14.6043C69.789 14.4557 69.8757 14.369 69.9376 14.3443C70.0119 14.3071 70.1171 14.2886 70.2533 14.2886H71.8504C71.9742 14.2886 72.0733 14.3257 72.1476 14.4C72.2342 14.4743 72.2714 14.5671 72.259 14.6786C72.2466 14.8767 72.1414 15.1181 71.9433 15.4029C71.7576 15.6876 71.4852 15.9662 71.1262 16.2386C70.7671 16.511 70.3152 16.74 69.7704 16.9257C69.2381 17.099 68.6252 17.1857 67.9319 17.1857ZM65.889 11.3357H69.9933V11.28C69.9933 10.7971 69.9128 10.3762 69.7519 10.0171C69.5909 9.64571 69.3557 9.36095 69.0462 9.16286C68.7366 8.95238 68.3652 8.84714 67.9319 8.84714C67.4985 8.84714 67.1271 8.95238 66.8176 9.16286C66.5081 9.36095 66.2728 9.64571 66.1119 10.0171C65.9633 10.3762 65.889 10.7971 65.889 11.28V11.3357ZM78.8184 17C78.0755 17 77.4503 16.87 76.9426 16.61C76.435 16.35 76.0574 15.9662 75.8098 15.4586C75.5622 14.9386 75.4384 14.2948 75.4384 13.5271V9.31143H73.9712C73.8474 9.31143 73.7422 9.26809 73.6555 9.18143C73.5688 9.09476 73.5255 8.98333 73.5255 8.84714V7.78857C73.5255 7.66476 73.5688 7.55952 73.6555 7.47286C73.7422 7.38619 73.8474 7.34286 73.9712 7.34286H75.4384V4.26C75.4384 4.13619 75.4755 4.03095 75.5498 3.94428C75.6364 3.85762 75.7479 3.81428 75.8841 3.81428H77.3884C77.5122 3.81428 77.6174 3.85762 77.7041 3.94428C77.7907 4.03095 77.8341 4.13619 77.8341 4.26V7.34286H80.1555C80.2793 7.34286 80.3845 7.38619 80.4712 7.47286C80.5579 7.55952 80.6012 7.66476 80.6012 7.78857V8.84714C80.6012 8.98333 80.5579 9.09476 80.4712 9.18143C80.3845 9.26809 80.2793 9.31143 80.1555 9.31143H77.8341V13.3414C77.8341 13.849 77.9207 14.2452 78.0941 14.53C78.2798 14.8148 78.5955 14.9571 79.0412 14.9571H80.3226C80.4464 14.9571 80.5517 15.0005 80.6384 15.0871C80.725 15.1738 80.7684 15.279 80.7684 15.4029V16.5543C80.7684 16.6781 80.725 16.7833 80.6384 16.87C80.5517 16.9567 80.4464 17 80.3226 17H78.8184ZM85.2201 17.1857C84.5763 17.1857 83.9944 17.0619 83.4744 16.8143C82.9544 16.5543 82.5397 16.2138 82.2301 15.7929C81.933 15.3595 81.7844 14.8767 81.7844 14.3443C81.7844 13.4776 82.1373 12.7905 82.843 12.2829C83.5487 11.7629 84.4711 11.4162 85.6101 11.2429L88.1544 10.8714V10.4814C88.1544 9.96143 88.0244 9.55905 87.7644 9.27428C87.5044 8.98952 87.0587 8.84714 86.4273 8.84714C85.9816 8.84714 85.6163 8.94 85.3316 9.12571C85.0592 9.29905 84.8549 9.53428 84.7187 9.83143C84.6197 9.99238 84.4773 10.0729 84.2916 10.0729H82.8244C82.6882 10.0729 82.583 10.0357 82.5087 9.96143C82.4468 9.88714 82.4158 9.78809 82.4158 9.66428C82.4282 9.46619 82.5087 9.22476 82.6573 8.94C82.8182 8.65524 83.0535 8.38286 83.363 8.12286C83.6849 7.85048 84.0997 7.62143 84.6073 7.43571C85.1149 7.25 85.7277 7.15714 86.4458 7.15714C87.2258 7.15714 87.882 7.25619 88.4144 7.45428C88.9592 7.64 89.3925 7.89381 89.7144 8.21571C90.0363 8.53762 90.2716 8.91524 90.4201 9.34857C90.5687 9.7819 90.643 10.24 90.643 10.7229V16.5543C90.643 16.6781 90.5997 16.7833 90.513 16.87C90.4263 16.9567 90.3211 17 90.1973 17H88.693C88.5568 17 88.4454 16.9567 88.3587 16.87C88.2844 16.7833 88.2473 16.6781 88.2473 16.5543V15.83C88.0863 16.0529 87.8697 16.2695 87.5973 16.48C87.3249 16.6905 86.9906 16.8638 86.5944 17C86.2106 17.1238 85.7525 17.1857 85.2201 17.1857ZM85.8516 15.4214C86.2849 15.4214 86.6749 15.3286 87.0216 15.1429C87.3806 14.9571 87.6592 14.6724 87.8573 14.2886C88.0677 13.8924 88.173 13.3971 88.173 12.8029V12.4129L86.3158 12.71C85.5854 12.8214 85.0406 13.001 84.6816 13.2486C84.3225 13.4962 84.143 13.7995 84.143 14.1586C84.143 14.431 84.2235 14.6662 84.3844 14.8643C84.5577 15.05 84.7744 15.1924 85.0344 15.2914C85.2944 15.3781 85.5668 15.4214 85.8516 15.4214ZM96.225 17C96.0269 17 95.8783 16.9567 95.7793 16.87C95.6926 16.771 95.6183 16.6595 95.5564 16.5357L92.0836 7.91857C92.0588 7.85667 92.0464 7.80095 92.0464 7.75143C92.0464 7.64 92.0836 7.54714 92.1579 7.47286C92.2445 7.38619 92.3436 7.34286 92.455 7.34286H93.9593C94.1079 7.34286 94.2193 7.38619 94.2936 7.47286C94.3679 7.54714 94.4174 7.62143 94.4422 7.69571L96.9121 14.2143L99.3822 7.69571C99.4069 7.62143 99.4564 7.54714 99.5307 7.47286C99.605 7.38619 99.7164 7.34286 99.865 7.34286H101.388C101.487 7.34286 101.574 7.38619 101.648 7.47286C101.735 7.54714 101.778 7.64 101.778 7.75143C101.778 7.80095 101.772 7.85667 101.759 7.91857L98.2679 16.5357C98.2183 16.6595 98.1441 16.771 98.045 16.87C97.946 16.9567 97.7974 17 97.5993 17H96.225ZM103.918 17C103.794 17 103.689 16.9567 103.602 16.87C103.515 16.7833 103.472 16.6781 103.472 16.5543V7.78857C103.472 7.66476 103.515 7.55952 103.602 7.47286C103.689 7.38619 103.794 7.34286 103.918 7.34286H105.459C105.595 7.34286 105.7 7.38619 105.775 7.47286C105.861 7.55952 105.905 7.66476 105.905 7.78857V16.5543C105.905 16.6781 105.861 16.7833 105.775 16.87C105.7 16.9567 105.595 17 105.459 17H103.918ZM103.843 5.74571C103.72 5.74571 103.614 5.70238 103.528 5.61571C103.441 5.52905 103.398 5.42381 103.398 5.3V3.96286C103.398 3.83905 103.441 3.73381 103.528 3.64714C103.614 3.56047 103.72 3.51714 103.843 3.51714H105.533C105.67 3.51714 105.781 3.56047 105.868 3.64714C105.954 3.73381 105.998 3.83905 105.998 3.96286V5.3C105.998 5.42381 105.954 5.52905 105.868 5.61571C105.781 5.70238 105.67 5.74571 105.533 5.74571H103.843ZM112.245 17.1857C111.502 17.1857 110.864 17.099 110.332 16.9257C109.812 16.7524 109.385 16.5357 109.051 16.2757C108.716 16.0157 108.469 15.7557 108.308 15.4957C108.147 15.2357 108.06 15.019 108.048 14.8457C108.035 14.7095 108.073 14.6043 108.159 14.53C108.258 14.4433 108.363 14.4 108.475 14.4H109.942C109.992 14.4 110.035 14.4062 110.072 14.4186C110.109 14.431 110.159 14.4681 110.221 14.53C110.382 14.6662 110.549 14.8086 110.722 14.9571C110.908 15.1057 111.124 15.2357 111.372 15.3471C111.62 15.4462 111.929 15.4957 112.301 15.4957C112.783 15.4957 113.186 15.4029 113.508 15.2171C113.842 15.019 114.009 14.7405 114.009 14.3814C114.009 14.1214 113.935 13.911 113.786 13.75C113.65 13.589 113.39 13.4467 113.006 13.3229C112.623 13.1867 112.078 13.0443 111.372 12.8957C110.679 12.7348 110.103 12.5305 109.645 12.2829C109.187 12.0352 108.846 11.7257 108.623 11.3543C108.401 10.9829 108.289 10.5495 108.289 10.0543C108.289 9.57143 108.432 9.11333 108.716 8.68C109.013 8.23428 109.447 7.86905 110.016 7.58428C110.598 7.29952 111.316 7.15714 112.171 7.15714C112.839 7.15714 113.421 7.24381 113.916 7.41714C114.412 7.57809 114.82 7.78238 115.142 8.03C115.476 8.27762 115.73 8.53143 115.903 8.79143C116.077 9.03905 116.17 9.25571 116.182 9.44143C116.194 9.57762 116.157 9.68905 116.071 9.77571C115.984 9.85 115.885 9.88714 115.773 9.88714H114.399C114.337 9.88714 114.282 9.87476 114.232 9.85C114.183 9.82524 114.133 9.79428 114.083 9.75714C113.947 9.63333 113.799 9.50333 113.638 9.36714C113.477 9.21857 113.279 9.09476 113.043 8.99571C112.821 8.89667 112.523 8.84714 112.152 8.84714C111.682 8.84714 111.323 8.95238 111.075 9.16286C110.827 9.36095 110.703 9.61476 110.703 9.92428C110.703 10.1348 110.759 10.3205 110.871 10.4814C110.994 10.63 111.236 10.7724 111.595 10.9086C111.954 11.0448 112.499 11.1871 113.229 11.3357C114.059 11.4843 114.715 11.7071 115.198 12.0043C115.693 12.289 116.04 12.6233 116.238 13.0071C116.448 13.3786 116.553 13.7933 116.553 14.2514C116.553 14.8086 116.386 15.31 116.052 15.7557C115.73 16.2014 115.247 16.5543 114.603 16.8143C113.972 17.0619 113.186 17.1857 112.245 17.1857ZM118.916 17C118.792 17 118.687 16.9567 118.601 16.87C118.514 16.7833 118.471 16.6781 118.471 16.5543V7.78857C118.471 7.66476 118.514 7.55952 118.601 7.47286C118.687 7.38619 118.792 7.34286 118.916 7.34286H120.458C120.594 7.34286 120.699 7.38619 120.773 7.47286C120.86 7.55952 120.903 7.66476 120.903 7.78857V16.5543C120.903 16.6781 120.86 16.7833 120.773 16.87C120.699 16.9567 120.594 17 120.458 17H118.916ZM118.842 5.74571C118.718 5.74571 118.613 5.70238 118.526 5.61571C118.44 5.52905 118.396 5.42381 118.396 5.3V3.96286C118.396 3.83905 118.44 3.73381 118.526 3.64714C118.613 3.56047 118.718 3.51714 118.842 3.51714H120.532C120.668 3.51714 120.78 3.56047 120.866 3.64714C120.953 3.73381 120.996 3.83905 120.996 3.96286V5.3C120.996 5.42381 120.953 5.52905 120.866 5.61571C120.78 5.70238 120.668 5.74571 120.532 5.74571H118.842ZM127.693 17.1857C126.703 17.1857 125.867 17.0124 125.186 16.6657C124.517 16.319 124.004 15.83 123.645 15.1986C123.298 14.5671 123.1 13.8305 123.05 12.9886C123.038 12.7657 123.032 12.4933 123.032 12.1714C123.032 11.8495 123.038 11.5771 123.05 11.3543C123.1 10.5 123.304 9.76333 123.663 9.14428C124.035 8.51286 124.555 8.02381 125.223 7.67714C125.904 7.33047 126.727 7.15714 127.693 7.15714C128.659 7.15714 129.476 7.33047 130.145 7.67714C130.826 8.02381 131.346 8.51286 131.705 9.14428C132.076 9.76333 132.286 10.5 132.336 11.3543C132.348 11.5771 132.355 11.8495 132.355 12.1714C132.355 12.4933 132.348 12.7657 132.336 12.9886C132.286 13.8305 132.082 14.5671 131.723 15.1986C131.376 15.83 130.863 16.319 130.182 16.6657C129.513 17.0124 128.684 17.1857 127.693 17.1857ZM127.693 15.3471C128.349 15.3471 128.857 15.1429 129.216 14.7343C129.575 14.3133 129.773 13.7005 129.81 12.8957C129.823 12.71 129.829 12.4686 129.829 12.1714C129.829 11.8743 129.823 11.6329 129.81 11.4471C129.773 10.6424 129.575 10.0357 129.216 9.62714C128.857 9.20619 128.349 8.99571 127.693 8.99571C127.037 8.99571 126.529 9.20619 126.17 9.62714C125.811 10.0357 125.613 10.6424 125.576 11.4471C125.564 11.6329 125.557 11.8743 125.557 12.1714C125.557 12.4686 125.564 12.71 125.576 12.8957C125.613 13.7005 125.811 14.3133 126.17 14.7343C126.529 15.1429 127.037 15.3471 127.693 15.3471ZM134.858 17C134.734 17 134.629 16.9567 134.542 16.87C134.456 16.7833 134.412 16.6781 134.412 16.5543V7.78857C134.412 7.66476 134.456 7.55952 134.542 7.47286C134.629 7.38619 134.734 7.34286 134.858 7.34286H136.381C136.505 7.34286 136.61 7.38619 136.697 7.47286C136.783 7.55952 136.827 7.66476 136.827 7.78857V8.55C137.148 8.15381 137.557 7.82571 138.052 7.56571C138.56 7.29333 139.185 7.15714 139.928 7.15714C140.683 7.15714 141.339 7.33047 141.897 7.67714C142.454 8.01143 142.881 8.48809 143.178 9.10714C143.487 9.72619 143.642 10.469 143.642 11.3357V16.5543C143.642 16.6781 143.599 16.7833 143.512 16.87C143.426 16.9567 143.32 17 143.197 17H141.562C141.438 17 141.333 16.9567 141.247 16.87C141.16 16.7833 141.117 16.6781 141.117 16.5543V11.4471C141.117 10.729 140.937 10.1657 140.578 9.75714C140.231 9.34857 139.724 9.14428 139.055 9.14428C138.411 9.14428 137.897 9.34857 137.514 9.75714C137.13 10.1657 136.938 10.729 136.938 11.4471V16.5543C136.938 16.6781 136.895 16.7833 136.808 16.87C136.721 16.9567 136.616 17 136.492 17H134.858Z" fill="#0D0A1F"/>
<g clip-path="url(#clip0_40_11310)">
<path d="M37.1413 15.5219L30.1739 2.52318C29.3391 0.965319 27.7785 0.0233509 25.9994 0.00340502C24.2251 -0.022438 22.6385 0.889873 21.7679 2.42866L18.9588 7.39432L16.3461 2.52058C15.5111 0.963064 13.9498 0.0212694 12.172 0.000976562H12.1135C10.359 0.000976562 8.80207 0.904093 7.94097 2.42501L0.575874 15.4332C-0.20564 16.8135 -0.190772 18.4532 0.615755 19.8192C1.42228 21.1853 2.85675 22.001 4.45319 22.001H9.53916C10.7392 22.0001 11.9175 21.6829 12.9533 21.0819C13.989 20.4809 14.8451 19.6177 15.4338 18.5807L18.8993 12.4658L22.1027 18.4425C22.6775 19.5181 23.5372 20.4178 24.5894 21.0449C25.6416 21.6719 26.8463 22.0025 28.0739 22.001H33.2148C34.7899 22.001 36.2147 21.2016 37.0262 19.863C37.8376 18.5243 37.8815 16.9009 37.1413 15.5219ZM13.2965 17.389C12.9211 18.0498 12.3754 18.5998 11.7152 18.9828C11.055 19.3657 10.304 19.5678 9.53916 19.5683H4.45319C4.10506 19.5684 3.76295 19.4782 3.4609 19.3065C3.15885 19.1349 2.90738 18.8878 2.73151 18.5899C2.55563 18.292 2.46148 17.9536 2.45841 17.6085C2.45534 17.2633 2.54347 16.9233 2.71402 16.6223L10.0791 3.61414C10.4989 2.87163 11.2589 2.43108 12.1153 2.43108H12.1438C13.0119 2.44097 13.7733 2.90059 14.1808 3.66079L17.5327 9.91358L13.2965 17.389ZM34.9244 18.6098C34.555 19.2191 33.9319 19.5688 33.2148 19.5688H28.0742C27.2918 19.5697 26.5239 19.359 25.8533 18.9594C25.1827 18.5597 24.6347 17.9862 24.2683 17.3007L20.3266 9.94671L23.9059 3.61813C24.3306 2.86729 25.1067 2.42918 25.9709 2.43455C26.839 2.44444 27.6004 2.90406 28.008 3.66426L34.9753 16.6628C35.3125 17.2908 35.2936 18.0004 34.9244 18.6098V18.6098Z" fill="url(#paint0_linear_40_11310)"/>
</g>
<defs>
<linearGradient id="paint0_linear_40_11310" x1="5.8509e-05" y1="11.0002" x2="37.6667" y2="11.0002" gradientUnits="userSpaceOnUse">
<stop stop-color="#FFA674"/>
<stop offset="0.5" stop-color="#FF70A4"/>
<stop offset="1" stop-color="#9E2CF2"/>
</linearGradient>
<clipPath id="clip0_40_11310">
<rect width="37.6667" height="22" fill="white"/>
</clipPath>
</defs>
</svg>
